<svg width="952" height="317" viewBox="0 0 952 317" fill="none" xmlns="http://www.w3.org/2000/svg">
<mask id="mask0_148_219" style="mask-type:alpha" maskUnits="userSpaceOnUse" x="0" y="0" width="952" height="317">
<path d="M349.226 2.74146V36.1361H377.188V2.74146H394.414V88.3879H377.188V50.4244H349.226V88.3879H332V2.74146H349.226Z" fill="#C8161D"/>
<path d="M407.812 34.1423C407.812 28.4934 408.644 23.5092 410.309 19.2725C411.973 15.0359 414.303 11.4638 417.465 8.63941C420.544 5.81499 424.289 3.65513 428.617 2.15985C432.944 0.664568 437.854 0 443.18 0C448.506 0 453.416 0.747639 457.826 2.15985C462.237 3.57206 465.982 5.73192 469.061 8.63941C472.14 11.4638 474.553 15.0359 476.217 19.2725C477.882 23.5092 478.797 28.4934 478.797 34.1423V56.1562C478.797 61.722 477.965 66.6232 476.217 70.8598C474.553 75.0964 472.14 78.6685 469.061 81.4929C465.982 84.3173 462.237 86.4772 457.826 87.8894C453.416 89.3016 448.589 90.0493 443.18 90.0493C437.771 90.0493 432.944 89.3016 428.617 87.8894C424.289 86.4772 420.544 84.3173 417.465 81.4929C414.386 78.6685 411.973 75.0964 410.309 70.8598C408.644 66.6232 407.812 61.722 407.812 56.1562V34.1423ZM424.705 54.0794C424.705 61.805 426.286 67.4539 429.449 70.7767C432.611 74.1827 437.188 75.8441 443.18 75.8441C449.172 75.8441 453.665 74.1827 456.828 70.7767C459.99 67.3708 461.571 61.805 461.571 54.0794V36.5514C461.571 28.7427 459.99 23.0938 456.828 19.6879C453.665 16.282 449.088 14.6205 443.263 14.6205C437.438 14.6205 432.778 16.282 429.532 19.6879C426.37 23.0938 424.789 28.6596 424.789 36.5514V54.0794H424.705Z" fill="#C8161D"/>
<path d="M525.815 75.9272C536.551 75.9272 541.877 70.0292 541.877 58.3161V2.74146H558.853V56.2394C558.853 68.0355 556.19 76.5918 550.864 81.9915C545.538 87.3911 537.133 90.0494 525.732 90.0494C514.331 90.0494 505.843 87.3911 500.6 81.9915C495.274 76.5918 492.611 68.0355 492.611 56.2394V2.74146H509.838V58.3161C509.838 70.0292 515.164 75.9272 525.815 75.9272Z" fill="#C8161D"/>
<path d="M617.772 25.6691C617.522 21.6817 616.191 18.8572 613.694 17.1958C611.197 15.5344 607.785 14.7037 603.375 14.7037C598.964 14.7037 595.968 15.5344 593.722 17.2789C591.475 19.0234 590.393 21.8478 590.559 25.6691C590.559 27.6628 591.391 29.3242 592.973 30.6534C594.554 31.9825 596.301 33.1455 598.465 34.0593C600.629 34.9731 602.792 35.7207 605.123 36.3022C607.453 36.8837 609.283 37.3821 610.781 37.7975C614.609 38.9605 618.105 40.2896 621.267 41.7849C624.429 43.1971 627.092 44.9416 629.422 46.9353C631.669 48.929 633.417 51.3381 634.748 53.9964C636.08 56.6547 636.662 59.9775 636.662 63.7988C636.662 68.7 635.83 72.8536 634.082 76.2595C632.335 79.6654 629.922 82.4068 626.926 84.4835C623.847 86.5603 620.351 88.0556 616.274 88.9694C612.196 89.8832 607.952 90.2155 603.375 90.0493C598.631 89.8832 594.304 89.2186 590.476 88.0556C586.648 86.8926 583.319 85.065 580.49 82.656C577.66 80.2469 575.497 77.2563 573.916 73.6012C572.335 69.9461 571.419 65.6264 571.169 60.6421H587.98C588.146 65.5433 589.644 69.2815 592.473 71.8567C595.303 74.4319 599.131 75.7611 603.791 75.8441C609.117 75.8441 613.111 75.0965 615.774 73.352C618.437 71.6075 619.686 68.4508 619.519 63.7988C619.519 61.6389 618.854 59.8114 617.855 58.3992C616.773 56.987 615.358 55.824 613.611 54.8271C611.863 53.8302 609.783 52.9995 607.453 52.2519C605.123 51.5042 602.709 50.8397 600.129 50.009C597.134 49.2613 594.054 48.2645 590.975 47.1845C587.813 46.0215 584.984 44.6093 582.404 42.7818C579.824 40.9542 577.744 38.7113 576.079 36.053C574.415 33.3947 573.583 30.0719 573.583 26.1675C573.583 21.9309 574.332 18.1927 575.83 14.9529C577.328 11.7131 579.408 8.97175 582.071 6.8119C584.734 4.65205 587.896 2.99062 591.558 1.9107C595.22 0.747698 599.214 0.249268 603.541 0.249268C608.451 0.249268 612.779 0.830769 616.607 2.07684C620.435 3.23984 623.68 4.98433 626.343 7.22726C629.006 9.47018 631.087 12.1285 632.501 15.3682C633.916 18.608 634.748 22.097 634.915 26.0014H617.938L617.772 25.6691Z" fill="#C8161D"/>
<path d="M702.322 2.74146V17.1959H665.04V38.0467H697.994V52.6673H665.04V73.7674H703.487V88.3879H647.813V2.74146H702.322Z" fill="#C8161D"/>
<path d="M754.25 65.6264L773.973 2.74146H792.447V88.3879H776.968V39.542L761.49 88.3879H746.927L731.531 39.3759V88.3879H715.886V2.74146H734.361L754.25 65.6264Z" fill="#9F0810"/>
<path d="M803.349 88.3879L831.726 2.74146H848.786L877.163 88.3879H860.603L855.36 72.6044H824.985L819.909 88.3879H803.349ZM840.214 25.7522L829.479 58.6484H850.866L840.214 25.7522Z" fill="#9F0810"/>
<path d="M904.126 2.74146L934.834 57.2362V2.74146H951.394V88.3879H935.832L905.458 33.9763V88.3879H888.231V2.74146H904.126Z" fill="#9F0810"/>
<path d="M0 0V195.882L74.4804 135.822V46.5199H243.996V0H0ZM32.1223 67.7862C28.7103 47.766 25.9641 45.0246 5.9085 41.6187C25.9641 38.2128 28.7103 35.4714 32.1223 15.4513C35.5342 35.4714 38.2804 38.2128 58.336 41.6187C38.2804 45.0246 35.5342 47.766 32.1223 67.7862Z" fill="#9F0810"/>
<path d="M106.353 136.071L145.382 169.382L158.531 181.345L145.382 161.407V150.193H177.255V196.547L200.307 216.151V317H243.996V78.3362H106.353V136.071Z" fill="#C8161D"/>
<path d="M1.08184 235.839L0 234.51V317H168.434V230.855L90.1254 164.149L1.08184 235.839ZM111.096 268.237H71.2349V228.197H111.096V268.237Z" fill="#C8161D"/>
<path d="M371.423 173.913V178.709C379.285 179.036 385.728 180.235 389.987 182.634C394.246 185.032 396.43 188.411 396.43 193.535C396.43 198.658 394.246 202.038 389.987 204.327C384.636 207.379 376.337 208.469 365.962 208.469C355.588 208.469 347.289 207.379 341.938 204.327C337.788 202.038 335.495 198.549 335.495 193.535C335.495 188.52 337.788 185.032 341.938 182.634C346.306 180.235 352.64 179.145 360.284 178.709V173.913H332V164.32H399.706V173.913H371.313H371.423ZM336.805 132.052H395.011V141.427H371.859C374.153 147.423 384.527 150.584 395.775 151.456V160.831C383.544 160.068 372.405 156.689 365.744 150.802C359.083 156.798 347.944 160.177 335.713 160.831V151.456C346.743 150.802 357.226 147.423 359.519 141.427H336.696V132.052H336.805ZM346.743 193.535C346.743 195.061 347.507 196.151 348.927 196.914C351.984 198.549 357.663 198.985 365.962 198.985C374.262 198.985 379.941 198.549 382.998 196.914C384.527 196.151 385.182 195.061 385.182 193.535C385.182 192.009 384.418 190.918 382.998 190.046C379.941 188.52 374.262 187.975 365.962 187.975C357.663 187.975 351.984 188.411 348.927 190.046C347.507 190.918 346.743 192.009 346.743 193.535Z" fill="#040000"/>
<path d="M409.098 193.317H436.836V172.06H447.975V193.317H476.04V203.019H409.098V193.317ZM442.515 158.433C437.054 166.173 426.243 173.913 410.299 176.638V166.827C427.554 162.794 436.836 152.656 436.836 136.304V132.052H448.084V136.304C448.084 152.656 457.476 162.794 474.73 166.827V176.638C458.786 173.804 447.866 166.173 442.515 158.433Z" fill="#040000"/>
<path d="M501.266 129H512.514V135.65H527.584V144.807H485.104V135.65H501.266V129ZM487.288 161.485C487.288 157.016 489.362 153.309 492.857 150.802C496.352 148.295 501.156 147.096 506.617 147.096C512.077 147.096 516.991 148.295 520.376 150.802C523.871 153.309 526.055 156.907 526.055 161.485C526.055 166.064 523.871 169.77 520.376 172.168C516.882 174.676 512.077 175.875 506.617 175.875C501.156 175.875 496.242 174.676 492.857 172.168C489.362 169.661 487.288 166.064 487.288 161.485ZM491.11 193.426C491.11 188.629 493.294 185.359 497.007 183.069C502.467 179.908 510.985 178.818 520.704 178.818C530.423 178.818 539.05 179.908 544.401 183.069C548.223 185.359 550.408 188.738 550.408 193.426C550.408 198.113 548.223 201.492 544.401 203.782C539.05 206.943 530.423 208.033 520.704 208.033C510.985 208.033 502.467 206.943 497.007 203.782C493.185 201.492 491.11 198.113 491.11 193.426ZM497.99 161.485C497.99 163.011 498.754 164.211 499.846 165.192C501.375 166.391 503.777 167.154 506.617 167.154C509.456 167.154 511.749 166.391 513.387 165.192C514.479 164.211 515.244 163.011 515.244 161.485C515.244 159.959 514.479 158.76 513.387 157.779C511.858 156.58 509.456 155.926 506.617 155.926C503.777 155.926 501.484 156.58 499.846 157.779C498.754 158.76 497.99 159.959 497.99 161.485ZM502.358 193.426C502.358 194.625 503.013 195.606 504.323 196.26C507.381 197.895 513.278 198.549 520.704 198.549C528.13 198.549 534.136 197.895 537.085 196.26C538.395 195.497 539.159 194.625 539.159 193.426C539.159 192.226 538.395 191.245 537.085 190.482C534.136 188.847 528.13 188.193 520.704 188.193C513.278 188.193 507.381 188.847 504.323 190.482C503.013 191.245 502.358 192.226 502.358 193.426ZM527.475 147.314H537.521V131.289H548.769V177.946H537.521V170.751H527.475V161.703H537.521V156.471H527.475V147.423V147.314Z" fill="#040000"/>
<path d="M612.654 141.1V132.053H623.684V167.481H586.227V132.053H597.257V141.1H612.764H612.654ZM601.734 198.004H648.037V207.052H590.486V185.032H636.024V180.889H590.486V171.842H647.163V193.862H601.625V197.895L601.734 198.004ZM612.654 150.257H597.147V158.433H612.654V150.257ZM636.024 168.898V131.18H647.272V168.898H636.024Z" fill="#040000"/>
<path d="M697.069 169.988H662.779V132.053H700.236V141.755H673.918V160.395H700.127C706.351 160.395 710.064 159.523 712.576 157.67V131.18H723.824V174.022H712.576V166.718C710.064 168.898 705.478 169.988 696.96 169.988H697.069ZM666.273 191.464C666.273 186.013 669.113 182.198 673.262 179.69C679.159 176.093 687.896 175.003 695.868 175.003C703.839 175.003 712.685 176.093 718.473 179.69C722.732 182.198 725.571 186.122 725.571 191.464C725.571 196.805 722.841 200.838 718.473 203.346C712.685 206.834 703.949 207.924 695.868 207.924C687.787 207.924 679.159 206.834 673.262 203.346C669.113 200.838 666.273 196.914 666.273 191.464ZM677.521 191.464C677.521 193.317 678.504 194.625 680.361 195.715C683.855 197.677 690.08 198.331 695.977 198.331C701.874 198.331 708.098 197.677 711.593 195.715C713.34 194.625 714.432 193.317 714.432 191.464C714.432 189.61 713.34 188.302 711.593 187.321C708.098 185.25 701.874 184.705 695.977 184.705C690.08 184.705 683.964 185.25 680.361 187.321C678.504 188.411 677.521 189.719 677.521 191.464Z" fill="#040000"/>
<path d="M820.469 152.329H831.171V162.031H820.469V185.141H809.221V173.804C806.6 175.875 802.123 176.965 793.823 176.965H758.878V167.263H769.362V150.584H780.61V167.263H796.881C803.106 167.263 806.709 166.391 809.221 164.647V131.18H820.469V152.329ZM789.455 141.645H761.936V131.944H800.703V148.622C800.703 152.765 800.375 157.343 799.611 161.049H788.581C789.127 157.343 789.455 152.983 789.455 149.058V141.645ZM764.447 207.052V182.307H775.695V197.241H821.779V206.943H764.447V207.052Z" fill="#040000"/>
<path d="M849.518 191.573H874.744C880.859 191.573 885.337 190.591 887.739 188.52V131.18H898.987V206.289H887.739V197.568C885.227 200.075 879.658 201.275 872.669 201.275H838.379V161.595H863.387V142.191H838.379V132.489H874.525V171.405H849.518V191.573Z" fill="#040000"/>
<path d="M332.165 260.423C332.165 253.229 334.458 247.778 338.717 244.29C342.102 241.564 346.689 240.147 352.04 240.147C357.391 240.147 362.086 241.564 365.362 244.29C369.621 247.778 371.915 253.229 371.915 260.423C371.915 267.618 369.621 273.069 365.362 276.557C361.977 279.282 357.391 280.699 352.04 280.699C346.689 280.699 341.993 279.282 338.717 276.557C334.458 273.069 332.165 267.509 332.165 260.423ZM337.406 286.15H394.083V316.564H337.406V286.15ZM343.194 260.423C343.194 264.239 344.286 267.182 346.143 268.926C347.562 270.343 349.637 270.997 352.149 270.997C354.661 270.997 356.626 270.343 358.155 268.926C360.012 267.073 361.104 264.13 361.104 260.423C361.104 256.717 360.012 253.665 358.155 251.92C356.735 250.503 354.661 249.74 352.149 249.74C349.637 249.74 347.672 250.503 346.143 251.92C344.286 253.665 343.194 256.717 343.194 260.423ZM348.654 295.743V306.971H382.944V295.743H348.654ZM382.944 282.662V240.583H394.192V282.662H382.944Z" fill="#040000"/>
<path d="M429.902 310.786H409.699V242H437.219V251.702H420.62V301.084H432.086C437.546 301.084 441.696 300.321 444.098 298.468V241.128H455.019V269.471H460.807V240.692H471.727V315.8H460.807V279.282H455.019V314.928H444.098V307.624C441.587 309.696 436.673 310.786 429.902 310.786Z" fill="#040000"/>
<path d="M506.236 287.675H573.069V297.377H545.112V316.89H533.864V297.377H506.126V287.675H506.236ZM509.949 241.564H569.356V251.266H545.222C546.095 262.821 557.016 269.253 570.011 271.542V281.244C557.125 279.282 546.204 274.376 539.543 266.745C532.991 274.376 521.961 279.282 509.075 281.244V271.542C521.961 269.253 532.882 262.821 533.755 251.266H509.949V241.564Z" fill="#040000"/>
<path d="M612.492 258.57V267.727H595.238V275.903H608.998C614.021 275.903 617.297 275.031 619.7 273.178V241.019H630.292V258.461H636.08V240.583H646.782V286.804H636.08V268.272H630.292V286.477H619.7V281.789C617.188 283.97 613.475 284.951 605.94 284.951H584.427V241.455H613.475V250.503H595.238V258.461H612.492V258.57ZM635.643 300.103H588.795V290.401H646.891V317H635.643V300.103Z" fill="#040000"/>
<path d="M742.553 261.84H753.255V271.542H742.553V294.652H731.305V283.315C728.684 285.386 724.207 286.476 715.907 286.476H680.962V276.774H691.445V260.096H702.693V276.774H718.965C725.189 276.774 728.793 275.902 731.305 274.158V240.692H742.553V261.84ZM711.539 251.157H684.02V241.455H722.787V258.133C722.787 262.276 722.459 266.854 721.695 270.561H710.665C711.211 266.854 711.539 262.494 711.539 258.569V251.157ZM686.531 316.563V291.818H697.779V306.752H743.863V316.454H686.531V316.563Z" fill="#040000"/>
<path d="M771.602 301.084H796.828C802.944 301.084 807.421 300.103 809.823 298.031V240.692H821.071V315.8H809.823V307.079C807.421 309.587 801.742 310.786 794.753 310.786H760.463V271.106H785.471V251.702H760.463V242H796.61V280.917H771.602V301.084Z" fill="#040000"/>
</mask>
<g mask="url(#mask0_148_219)">
<rect x="-58" y="-34" width="1069" height="411" fill="white"/>
</g>
</svg>
