<svg width="244" height="317" viewBox="0 0 244 317" fill="none" xmlns="http://www.w3.org/2000/svg">
<path d="M0 0V195.882L74.4804 135.822V46.5199H243.996V0H0ZM32.1223 67.7862C28.7103 47.766 25.9641 45.0246 5.9085 41.6187C25.9641 38.2128 28.7103 35.4714 32.1223 15.4513C35.5342 35.4714 38.2804 38.2128 58.336 41.6187C38.2804 45.0246 35.5342 47.766 32.1223 67.7862Z" fill="#9F0810"/>
<path d="M106.353 136.071L145.382 169.382L158.531 181.345L145.382 161.407V150.193H177.255V196.547L200.307 216.151V317H243.996V78.3362H106.353V136.071Z" fill="#C8161D"/>
<path d="M1.08184 235.839L0 234.51V317H168.434V230.855L90.1254 164.149L1.08184 235.839ZM111.096 268.237H71.2349V228.197H111.096V268.237Z" fill="#C8161D"/>
</svg>
