<svg width="22" height="20" viewBox="0 0 22 20" fill="none" xmlns="http://www.w3.org/2000/svg">
<path fill-rule="evenodd" clip-rule="evenodd" d="M10.7923 0C4.81799 0 0 3.85435 0 8.53358C0 11.5708 2.00428 14.2304 5.01071 15.749L3.99315 19.5495C3.97396 19.6064 3.97101 19.6675 3.98463 19.7261C3.99824 19.7846 4.02788 19.8382 4.07024 19.8809C4.13199 19.9353 4.21145 19.9655 4.29379 19.9657C4.36206 19.9602 4.42684 19.9332 4.4788 19.8886L8.85739 16.9362C9.50372 17.0254 10.1553 17.0717 10.8077 17.0749C16.7743 17.0749 21.6 13.2205 21.6 8.53358C21.6 3.84664 16.7589 0 10.7923 0ZM3.77687 7.1845H2.59743C2.45124 7.18874 2.30687 7.1513 2.18115 7.07657C2.12534 7.0416 2.07736 6.99545 2.04021 6.94106C2.00307 6.88667 1.97757 6.82519 1.96531 6.76048C1.96156 6.71945 1.96156 6.67824 1.96531 6.63721C1.96165 6.56044 1.97655 6.48388 2.00875 6.4141C2.04096 6.34431 2.08952 6.28336 2.15032 6.23634C2.28471 6.13901 2.44692 6.08759 2.61284 6.08982H6.16659C6.31394 6.08464 6.4593 6.12504 6.58287 6.20547C6.64 6.23889 6.68899 6.28463 6.72632 6.33928C6.76364 6.39394 6.78837 6.45619 6.79871 6.52156C6.80247 6.56001 6.80247 6.59876 6.79871 6.63721C6.80235 6.71508 6.78748 6.79269 6.75532 6.86371C6.72316 6.93473 6.67463 6.99706 6.6137 7.0457C6.48258 7.14292 6.32194 7.19197 6.15888 7.1845H5.01799V11.2393C5.02262 11.3257 5.00925 11.4121 4.97873 11.493C4.94821 11.574 4.9012 11.6477 4.84068 11.7096C4.78265 11.7687 4.7129 11.815 4.63589 11.8455C4.55889 11.8761 4.47634 11.8901 4.39357 11.8868C4.2488 11.891 4.10709 11.8447 3.99272 11.7559C3.88383 11.6691 3.80992 11.5458 3.78458 11.4089C3.77696 11.3526 3.77696 11.2956 3.78458 11.2393L3.77687 7.1845ZM7.3627 6.0821C7.25268 6.15377 7.17305 6.26362 7.13914 6.39048L5.50488 10.823C5.49622 10.8468 5.48573 10.8713 5.47512 10.896L5.47512 10.896C5.44798 10.9592 5.42008 11.0242 5.42008 11.0852C5.40685 11.1617 5.40685 11.2399 5.42008 11.3164C5.41599 11.36 5.41599 11.4039 5.42008 11.4475C5.44267 11.5753 5.51121 11.6904 5.6128 11.7712C5.71708 11.8495 5.84476 11.8903 5.97512 11.8868C6.09546 11.902 6.21732 11.8749 6.31993 11.8102C6.42255 11.7456 6.49957 11.6473 6.53786 11.5323L6.86163 10.5841H8.88903L9.2128 11.5323C9.25204 11.6451 9.32815 11.7415 9.42884 11.8058C9.52953 11.8701 9.64894 11.8987 9.76784 11.8868C9.84515 11.8887 9.92202 11.8746 9.99364 11.8454C10.0653 11.8163 10.1301 11.7726 10.1841 11.7173C10.2398 11.6668 10.2839 11.6048 10.3132 11.5356C10.3425 11.4663 10.3563 11.3915 10.3537 11.3164C10.3563 11.2676 10.3563 11.2188 10.3537 11.17C10.3269 11.0525 10.2935 10.9367 10.2535 10.823L8.71174 6.46754C8.67488 6.3132 8.58132 6.17837 8.44964 6.08982C8.32537 6.01918 8.18392 5.98448 8.04107 5.9896H7.74814C7.61352 5.9836 7.47993 6.01566 7.3627 6.0821ZM7.17769 9.713L7.91002 7.40037L8.63464 9.713H7.17769ZM10.5302 6.63729C10.5223 6.46429 10.5833 6.29524 10.6998 6.16706C10.759 6.10735 10.83 6.06068 10.9084 6.03014C10.9867 5.9996 11.0706 5.98579 11.1546 5.98968C11.299 5.98799 11.4399 6.0341 11.5554 6.12076C11.6625 6.21119 11.7336 6.33697 11.7559 6.47534C11.7634 6.52903 11.7634 6.58359 11.7559 6.63729V10.6921H13.8758C14.0227 10.6902 14.1671 10.7302 14.292 10.8077C14.3482 10.8423 14.3964 10.8883 14.4336 10.9428C14.4708 10.9972 14.4961 11.0589 14.5079 11.1238V11.2394C14.5116 11.3162 14.4967 11.3926 14.4644 11.4624C14.4322 11.5322 14.3837 11.5933 14.3229 11.6403C14.1885 11.7376 14.0263 11.7889 13.8604 11.7867H11.2548C11.0888 11.7974 10.9239 11.7542 10.7845 11.6634C10.6599 11.5702 10.5769 11.4318 10.5533 11.278C10.5476 11.1933 10.5476 11.1082 10.5533 11.0235L10.5302 6.63729ZM14.8166 6.1671C14.7029 6.29694 14.6424 6.46483 14.647 6.63732L14.6007 11.2009C14.5931 11.2571 14.5931 11.3143 14.6007 11.3705C14.6261 11.5075 14.7 11.6306 14.8089 11.7174C14.9209 11.8051 15.0598 11.8514 15.202 11.8485C15.2871 11.852 15.3721 11.8381 15.4516 11.8076C15.5312 11.7771 15.6036 11.7306 15.6645 11.6711C15.7782 11.5412 15.8388 11.3734 15.8341 11.2009V9.91356L16.5202 9.1966L17.9541 11.5092C18.0135 11.6176 18.0981 11.7102 18.2007 11.779C18.2956 11.8289 18.402 11.8529 18.5091 11.8485C18.6703 11.8507 18.8276 11.7991 18.9562 11.702C19.0246 11.6438 19.0778 11.57 19.1114 11.4867C19.145 11.4035 19.1578 11.3133 19.1489 11.224V11.1855C19.1064 11.0559 19.0439 10.9336 18.9639 10.8231V10.7461L17.4221 8.35637L18.7018 6.95332C18.7582 6.88962 18.8074 6.81988 18.8483 6.74526C18.8884 6.67478 18.9097 6.59507 18.9099 6.51396C18.9062 6.49616 18.9062 6.47783 18.9099 6.46004C18.9131 6.44478 18.9131 6.429 18.9099 6.41374C18.899 6.35151 18.8756 6.29216 18.8411 6.23918C18.8067 6.1862 18.7619 6.14066 18.7095 6.10537C18.5983 6.02934 18.4665 5.98898 18.3318 5.98972C18.2396 5.98791 18.1489 6.01202 18.0697 6.05917C17.9857 6.12613 17.9059 6.19815 17.8307 6.27494L15.8804 8.52594V6.63732C15.8842 6.58343 15.8842 6.52927 15.8804 6.47538C15.8555 6.33615 15.7817 6.21043 15.6723 6.1208C15.5461 6.02888 15.3921 5.98327 15.2362 5.99169C15.0803 6.00012 14.9321 6.06211 14.8166 6.1671Z" fill="white"/>
</svg>
