<svg width="22" height="22" viewBox="0 0 22 22" fill="none" xmlns="http://www.w3.org/2000/svg">
<path fill-rule="evenodd" clip-rule="evenodd" d="M17.7439 2.12012H4.6669C2.81601 2.12012 1.30859 3.6339 1.30859 5.47842V13.607C1.30859 15.4579 2.82237 16.9653 4.6669 16.9653H9.28456L10.0796 18.3392L10.862 19.694C11.0019 19.942 11.3581 19.942 11.5044 19.694L12.2867 18.3392L13.0817 16.9653H17.7503C19.6012 16.9653 21.1086 15.4516 21.1086 13.607V5.48478C21.1086 3.6339 19.5948 2.12012 17.7439 2.12012ZM12.1213 8.07404C11.1099 8.07404 10.2895 8.88181 10.2895 9.8804C10.2895 10.879 11.1099 11.6868 12.1213 11.6868C13.1326 11.6868 13.9531 10.879 13.9531 9.8804C13.9531 8.88181 13.1389 8.07404 12.1213 8.07404ZM12.1213 10.7454C11.6379 10.7454 11.2435 10.3574 11.2435 9.8804C11.2435 9.40337 11.6379 9.01538 12.1213 9.01538C12.6046 9.01538 12.999 9.40337 12.999 9.8804C12.999 10.3574 12.611 10.7454 12.1213 10.7454ZM5.27753 8.48767C5.56375 8.22689 5.93265 8.07424 6.327 8.07424C7.2429 8.07424 7.97435 8.88838 7.97435 9.88697C7.97435 10.8856 7.23654 11.6933 6.327 11.6933C5.92629 11.6933 5.56375 11.5343 5.27753 11.2799V11.6043H4.25986V6.99297H5.27753V8.48767ZM5.28389 10.2368C5.42382 10.5612 5.7482 10.7838 6.12347 10.7838C6.6323 10.7838 7.03937 10.3831 7.03937 9.88061C7.03937 9.37813 6.6323 8.97743 6.12347 8.97743C5.7482 8.97743 5.42382 9.20004 5.28389 9.52442C5.23301 9.63255 5.20757 9.7534 5.20757 9.88061C5.20757 10.0078 5.23937 10.1287 5.28389 10.2368ZM17.1271 8.15004V8.43626C16.8409 8.21365 16.4847 8.08008 16.1031 8.08008C15.1681 8.08008 14.4112 8.86241 14.4112 9.82283C14.4112 10.7833 15.1681 11.5656 16.1031 11.5656C16.4911 11.5656 16.8473 11.432 17.1271 11.2094V11.6928C17.1271 11.6928 17.0254 12.1698 16.313 12.1698V13.0667C16.313 13.0667 17.0826 13.1557 17.7695 12.4688C17.7695 12.4688 18.0876 12.1317 18.1575 11.6864V8.15004H17.1271ZM16.2939 10.7069C15.7787 10.7069 15.3653 10.3062 15.3653 9.81647C15.3653 9.32672 15.7851 8.92601 16.2939 8.92601C16.6565 8.92601 16.9745 9.12955 17.1271 9.42213C17.1907 9.54298 17.2225 9.67654 17.2225 9.81647C17.2225 9.9564 17.1844 10.0963 17.1271 10.2108C16.9745 10.5098 16.6565 10.7069 16.2939 10.7069ZM8.08838 7.82592V6.90366C8.08838 6.90366 8.76258 6.81462 9.36046 7.52062C9.36046 7.52062 9.63396 7.86408 9.69757 8.32203V8.34748V11.604H8.6481V8.34748C8.55905 7.88953 8.08838 7.82592 8.08838 7.82592Z" fill="white"/>
</svg>
